<svg width="5222" height="891" viewBox="0 0 5222 891" fill="none" xmlns="http://www.w3.org/2000/svg">
<circle cx="445.07" cy="445.07" r="445.07" fill="white" fill-opacity="0.25"/>
<foreignObject x="-1.8" y="-1.8" width="893.74" height="893.74"><div xmlns="http://www.w3.org/1999/xhtml" style="backdrop-filter:blur(0.9px);clip-path:url(#bgblur_0_29_9_clip_path);height:100%;width:100%"></div></foreignObject><circle data-figma-bg-blur-radius="1.8" cx="445.07" cy="445.07" r="445.07" fill="white" fill-opacity="0.01"/>
<circle cx="1166.89" cy="445.07" r="445.07" fill="#6F6192" fill-opacity="0.5"/>
<foreignObject x="720.019" y="-1.8" width="893.74" height="893.74"><div xmlns="http://www.w3.org/1999/xhtml" style="backdrop-filter:blur(0.9px);clip-path:url(#bgblur_1_29_9_clip_path);height:100%;width:100%"></div></foreignObject><circle data-figma-bg-blur-radius="1.8" cx="1166.89" cy="445.07" r="445.07" fill="white" fill-opacity="0.01"/>
<circle cx="1888.71" cy="445.07" r="445.07" fill="#0D7587" fill-opacity="0.5"/>
<foreignObject x="1441.84" y="-1.8" width="893.74" height="893.74"><div xmlns="http://www.w3.org/1999/xhtml" style="backdrop-filter:blur(0.9px);clip-path:url(#bgblur_2_29_9_clip_path);height:100%;width:100%"></div></foreignObject><circle data-figma-bg-blur-radius="1.8" cx="1888.71" cy="445.07" r="445.07" fill="white" fill-opacity="0.01"/>
<circle cx="2610.53" cy="445.07" r="445.07" fill="#71FF72" fill-opacity="0.5"/>
<foreignObject x="2163.66" y="-1.8" width="893.74" height="893.74"><div xmlns="http://www.w3.org/1999/xhtml" style="backdrop-filter:blur(0.9px);clip-path:url(#bgblur_3_29_9_clip_path);height:100%;width:100%"></div></foreignObject><circle data-figma-bg-blur-radius="1.8" cx="2610.53" cy="445.07" r="445.07" fill="white" fill-opacity="0.01"/>
<foreignObject x="2885.48" y="-1.8" width="893.74" height="893.74"><div xmlns="http://www.w3.org/1999/xhtml" style="backdrop-filter:blur(0.9px);clip-path:url(#bgblur_4_29_9_clip_path);height:100%;width:100%"></div></foreignObject><circle data-figma-bg-blur-radius="1.8" cx="3332.35" cy="445.07" r="445.07" fill="white" fill-opacity="0.01"/>
<circle cx="3332.35" cy="445.07" r="445.07" fill="#FFF9A1" fill-opacity="0.5"/>
<foreignObject x="3607.29" y="-1.8" width="893.74" height="893.74"><div xmlns="http://www.w3.org/1999/xhtml" style="backdrop-filter:blur(0.9px);clip-path:url(#bgblur_5_29_9_clip_path);height:100%;width:100%"></div></foreignObject><circle data-figma-bg-blur-radius="1.8" cx="4054.16" cy="445.07" r="445.07" fill="white" fill-opacity="0.01"/>
<circle cx="4054.16" cy="445.07" r="445.07" fill="#F36523" fill-opacity="0.25"/>
<circle cx="4054.16" cy="445.07" r="445.07" fill="#ED1E30" fill-opacity="0.25"/>
<circle cx="4775.99" cy="445.07" r="445.07" fill="black" fill-opacity="0.5"/>
<foreignObject x="4329.12" y="-1.8" width="893.74" height="893.74"><div xmlns="http://www.w3.org/1999/xhtml" style="backdrop-filter:blur(0.9px);clip-path:url(#bgblur_6_29_9_clip_path);height:100%;width:100%"></div></foreignObject><circle data-figma-bg-blur-radius="1.8" cx="4775.99" cy="445.07" r="445.07" fill="white" fill-opacity="0.01"/>
<defs>
<clipPath id="bgblur_0_29_9_clip_path" transform="translate(1.8 1.8)"><circle cx="445.07" cy="445.07" r="445.07"/>
</clipPath><clipPath id="bgblur_1_29_9_clip_path" transform="translate(-720.019 1.8)"><circle cx="1166.89" cy="445.07" r="445.07"/>
</clipPath><clipPath id="bgblur_2_29_9_clip_path" transform="translate(-1441.84 1.8)"><circle cx="1888.71" cy="445.07" r="445.07"/>
</clipPath><clipPath id="bgblur_3_29_9_clip_path" transform="translate(-2163.66 1.8)"><circle cx="2610.53" cy="445.07" r="445.07"/>
</clipPath><clipPath id="bgblur_4_29_9_clip_path" transform="translate(-2885.48 1.8)"><circle cx="3332.35" cy="445.07" r="445.07"/>
</clipPath><clipPath id="bgblur_5_29_9_clip_path" transform="translate(-3607.29 1.8)"><circle cx="4054.16" cy="445.07" r="445.07"/>
</clipPath><clipPath id="bgblur_6_29_9_clip_path" transform="translate(-4329.12 1.8)"><circle cx="4775.99" cy="445.07" r="445.07"/>
</clipPath></defs>
</svg>
